<?xml version="1.0" encoding="UTF-8" standalone="no"?>
<!DOCTYPE svg PUBLIC "-//W3C//DTD SVG 1.1//EN"
 "http://www.w3.org/Graphics/SVG/1.1/DTD/svg11.dtd">
<!-- Generated by graphviz version 2.47.1 (20210417.1919)
 -->
<!-- Title: G Pages: 1 -->
<svg width="616pt" height="221pt"
 viewBox="0.00 0.00 615.87 221.00" xmlns="http://www.w3.org/2000/svg" xmlns:xlink="http://www.w3.org/1999/xlink">
<g id="graph0" class="graph" transform="scale(1 1) rotate(0) translate(4 217)">
<title>G</title>
<polygon fill="white" stroke="transparent" points="-4,4 -4,-217 611.87,-217 611.87,4 -4,4"/>
<!-- B and A -->
<g id="node1" class="node">
<title>B and A</title>
<ellipse fill="none" stroke="black" cx="40.95" cy="-95" rx="40.89" ry="18"/>
<text text-anchor="middle" x="40.95" y="-91.3" font-family="Times New Roman,serif" font-size="14.00">B and A</text>
</g>
<!-- B -->
<g id="node2" class="node">
<title>B</title>
<ellipse fill="none" stroke="black" cx="174.89" cy="-122" rx="27" ry="18"/>
<text text-anchor="middle" x="174.89" y="-118.3" font-family="Times New Roman,serif" font-size="14.00">B</text>
</g>
<!-- B and A&#45;&gt;B -->
<g id="edge1" class="edge">
<title>B and A&#45;&gt;B</title>
<path fill="none" stroke="black" d="M78.35,-102.45C97.27,-106.32 120.29,-111.03 138.99,-114.86"/>
<polygon fill="black" stroke="black" points="138.38,-118.31 148.88,-116.88 139.78,-111.45 138.38,-118.31"/>
<text text-anchor="middle" x="114.89" y="-115.8" font-family="Times New Roman,serif" font-size="14.00">P(B)</text>
</g>
<!-- B&#39; -->
<g id="node3" class="node">
<title>B&#39;</title>
<ellipse fill="none" stroke="black" cx="174.89" cy="-68" rx="27" ry="18"/>
<text text-anchor="middle" x="174.89" y="-64.3" font-family="Times New Roman,serif" font-size="14.00">B&#39;</text>
</g>
<!-- B and A&#45;&gt;B&#39; -->
<g id="edge2" class="edge">
<title>B and A&#45;&gt;B&#39;</title>
<path fill="none" stroke="black" d="M78.35,-87.55C97.27,-83.68 120.29,-78.97 138.99,-75.14"/>
<polygon fill="black" stroke="black" points="139.78,-78.55 148.88,-73.12 138.38,-71.69 139.78,-78.55"/>
<text text-anchor="middle" x="114.89" y="-86.8" font-family="Times New Roman,serif" font-size="14.00">P(B&#39;)</text>
</g>
<!-- A -->
<g id="node4" class="node">
<title>A</title>
<ellipse fill="none" stroke="black" cx="309.89" cy="-148" rx="27" ry="18"/>
<text text-anchor="middle" x="309.89" y="-144.3" font-family="Times New Roman,serif" font-size="14.00">A</text>
</g>
<!-- B&#45;&gt;A -->
<g id="edge3" class="edge">
<title>B&#45;&gt;A</title>
<path fill="none" stroke="black" d="M200.91,-126.89C221.4,-130.9 250.64,-136.61 273.52,-141.09"/>
<polygon fill="black" stroke="black" points="273.05,-144.56 283.54,-143.04 274.39,-137.69 273.05,-144.56"/>
<text text-anchor="middle" x="242.39" y="-141.8" font-family="Times New Roman,serif" font-size="14.00">P(A|B)</text>
</g>
<!-- A&#39; -->
<g id="node5" class="node">
<title>A&#39;</title>
<ellipse fill="none" stroke="black" cx="309.89" cy="-68" rx="27" ry="18"/>
<text text-anchor="middle" x="309.89" y="-64.3" font-family="Times New Roman,serif" font-size="14.00">A&#39;</text>
</g>
<!-- B&#45;&gt;A&#39; -->
<g id="edge4" class="edge">
<title>B&#45;&gt;A&#39;</title>
<path fill="none" stroke="black" d="M200.12,-115.09C218.26,-109.61 243.53,-101.34 264.89,-92 269.98,-89.78 275.25,-87.17 280.32,-84.52"/>
<polygon fill="black" stroke="black" points="281.99,-87.59 289.11,-79.75 278.65,-81.44 281.99,-87.59"/>
<text text-anchor="middle" x="242.39" y="-111.8" font-family="Times New Roman,serif" font-size="14.00">P(A&#39;|B)</text>
</g>
<!-- B&#39;&#45;&gt;A -->
<g id="edge5" class="edge">
<title>B&#39;&#45;&gt;A</title>
<path fill="none" stroke="black" d="M201.17,-63.36C220.09,-61.26 245.87,-61.39 264.89,-73 274.32,-78.75 287.34,-102.42 296.77,-121.65"/>
<polygon fill="black" stroke="black" points="293.73,-123.41 301.21,-130.91 300.04,-120.38 293.73,-123.41"/>
<text text-anchor="middle" x="242.39" y="-76.8" font-family="Times New Roman,serif" font-size="14.00">P(A|B&#39;)</text>
</g>
<!-- B&#39;&#45;&gt;A&#39; -->
<g id="edge6" class="edge">
<title>B&#39;&#45;&gt;A&#39;</title>
<path fill="none" stroke="black" d="M192.27,-53.9C200.08,-48.07 209.9,-42 219.89,-39 239.05,-33.25 245.74,-33.25 264.89,-39 271.6,-41.01 278.24,-44.42 284.24,-48.2"/>
<polygon fill="black" stroke="black" points="282.3,-51.11 292.52,-53.9 286.26,-45.34 282.3,-51.11"/>
<text text-anchor="middle" x="242.39" y="-42.8" font-family="Times New Roman,serif" font-size="14.00">P(A&#39;|B&#39;)</text>
</g>
<!-- P(A ∩ B) = P(A|B) x P(B) -->
<g id="node6" class="node">
<title>P(A ∩ B) = P(A|B) x P(B)</title>
<ellipse fill="none" stroke="black" cx="490.88" cy="-195" rx="106.68" ry="18"/>
<text text-anchor="middle" x="490.88" y="-191.3" font-family="Times New Roman,serif" font-size="14.00">P(A ∩ B) = P(A|B) x P(B)</text>
</g>
<!-- A&#45;&gt;P(A ∩ B) = P(A|B) x P(B) -->
<g id="edge7" class="edge">
<title>A&#45;&gt;P(A ∩ B) = P(A|B) x P(B)</title>
<path fill="none" stroke="black" d="M334.4,-155.95C346.19,-159.81 360.72,-164.38 373.89,-168 387.13,-171.64 401.3,-175.2 415.03,-178.49"/>
<polygon fill="black" stroke="black" points="414.39,-181.93 424.93,-180.83 416.01,-175.12 414.39,-181.93"/>
</g>
<!-- P(A ∩ B&#39;) = P(A|B&#39;) x P(B&#39;) -->
<g id="node7" class="node">
<title>P(A ∩ B&#39;) = P(A|B&#39;) x P(B&#39;)</title>
<ellipse fill="none" stroke="black" cx="490.88" cy="-141" rx="112.38" ry="18"/>
<text text-anchor="middle" x="490.88" y="-137.3" font-family="Times New Roman,serif" font-size="14.00">P(A ∩ B&#39;) = P(A|B&#39;) x P(B&#39;)</text>
</g>
<!-- A&#45;&gt;P(A ∩ B&#39;) = P(A|B&#39;) x P(B&#39;) -->
<g id="edge8" class="edge">
<title>A&#45;&gt;P(A ∩ B&#39;) = P(A|B&#39;) x P(B&#39;)</title>
<path fill="none" stroke="black" d="M336.92,-146.98C346.64,-146.6 358.41,-146.14 371.06,-145.65"/>
<polygon fill="black" stroke="black" points="371.52,-149.13 381.37,-145.24 371.24,-142.14 371.52,-149.13"/>
</g>
<!-- P(A&#39; ∩ B) = P(A&#39;|B) x P(B) -->
<g id="node8" class="node">
<title>P(A&#39; ∩ B) = P(A&#39;|B) x P(B)</title>
<ellipse fill="none" stroke="black" cx="490.88" cy="-72" rx="111.28" ry="18"/>
<text text-anchor="middle" x="490.88" y="-68.3" font-family="Times New Roman,serif" font-size="14.00">P(A&#39; ∩ B) = P(A&#39;|B) x P(B)</text>
</g>
<!-- A&#39;&#45;&gt;P(A&#39; ∩ B) = P(A&#39;|B) x P(B) -->
<g id="edge9" class="edge">
<title>A&#39;&#45;&gt;P(A&#39; ∩ B) = P(A&#39;|B) x P(B)</title>
<path fill="none" stroke="black" d="M336.92,-68.58C346.48,-68.8 358.04,-69.05 370.46,-69.33"/>
<polygon fill="black" stroke="black" points="370.52,-72.83 380.59,-69.56 370.67,-65.83 370.52,-72.83"/>
</g>
<!-- P(A&#39; ∩ B&#39;) = P(A&#39;|B&#39;) x P(B&#39;) -->
<g id="node9" class="node">
<title>P(A&#39; ∩ B&#39;) = P(A&#39;|B&#39;) x P(B&#39;)</title>
<ellipse fill="none" stroke="black" cx="490.88" cy="-18" rx="116.98" ry="18"/>
<text text-anchor="middle" x="490.88" y="-14.3" font-family="Times New Roman,serif" font-size="14.00">P(A&#39; ∩ B&#39;) = P(A&#39;|B&#39;) x P(B&#39;)</text>
</g>
<!-- A&#39;&#45;&gt;P(A&#39; ∩ B&#39;) = P(A&#39;|B&#39;) x P(B&#39;) -->
<g id="edge10" class="edge">
<title>A&#39;&#45;&gt;P(A&#39; ∩ B&#39;) = P(A&#39;|B&#39;) x P(B&#39;)</title>
<path fill="none" stroke="black" d="M333.42,-59.02C345.33,-54.47 360.28,-49.05 373.89,-45 385.85,-41.44 398.62,-38.06 411.16,-34.96"/>
<polygon fill="black" stroke="black" points="412.24,-38.3 421.13,-32.55 410.59,-31.5 412.24,-38.3"/>
</g>
</g>
</svg>
