<?xml version="1.0" encoding="UTF-8" standalone="no"?>
<!DOCTYPE svg PUBLIC "-//W3C//DTD SVG 1.1//EN"
 "http://www.w3.org/Graphics/SVG/1.1/DTD/svg11.dtd">
<!-- Generated by graphviz version 2.47.1 (20210417.1919)
 -->
<!-- Title: G Pages: 1 -->
<svg width="429pt" height="125pt"
 viewBox="0.00 0.00 429.27 125.47" xmlns="http://www.w3.org/2000/svg" xmlns:xlink="http://www.w3.org/1999/xlink">
<g id="graph0" class="graph" transform="scale(1 1) rotate(0) translate(4 121.47)">
<title>G</title>
<polygon fill="white" stroke="transparent" points="-4,4 -4,-121.47 425.27,-121.47 425.27,4 -4,4"/>
<!-- Donuts and Coffee -->
<g id="node1" class="node">
<title>Donuts and Coffee</title>
<ellipse fill="none" stroke="black" cx="79.94" cy="-57.47" rx="79.89" ry="18"/>
<text text-anchor="middle" x="79.94" y="-53.77" font-family="Times New Roman,serif" font-size="14.00">Donuts and Coffee</text>
</g>
<!-- Donuts -->
<g id="node2" class="node">
<title>Donuts</title>
<ellipse fill="none" stroke="black" cx="252.88" cy="-84.47" rx="37.09" ry="18"/>
<text text-anchor="middle" x="252.88" y="-80.77" font-family="Times New Roman,serif" font-size="14.00">Donuts</text>
</g>
<!-- Donuts and Coffee&#45;&gt;Donuts -->
<g id="edge1" class="edge">
<title>Donuts and Coffee&#45;&gt;Donuts</title>
<path fill="none" stroke="black" d="M146.06,-67.75C166.44,-70.97 188.45,-74.45 207.1,-77.4"/>
<polygon fill="black" stroke="black" points="206.66,-80.87 217.08,-78.97 207.75,-73.96 206.66,-80.87"/>
<text text-anchor="middle" x="186.89" y="-78.27" font-family="Times New Roman,serif" font-size="14.00">3/4</text>
</g>
<!-- Donuts&#39; -->
<g id="node3" class="node">
<title>Donuts&#39;</title>
<ellipse fill="none" stroke="black" cx="252.88" cy="-30.47" rx="38.99" ry="18"/>
<text text-anchor="middle" x="252.88" y="-26.77" font-family="Times New Roman,serif" font-size="14.00">Donuts&#39;</text>
</g>
<!-- Donuts and Coffee&#45;&gt;Donuts&#39; -->
<g id="edge2" class="edge">
<title>Donuts and Coffee&#45;&gt;Donuts&#39;</title>
<path fill="none" stroke="black" d="M146.06,-47.19C165.87,-44.06 187.22,-40.68 205.53,-37.79"/>
<polygon fill="black" stroke="black" points="206.31,-41.21 215.64,-36.2 205.22,-34.3 206.31,-41.21"/>
<text text-anchor="middle" x="186.89" y="-45.27" font-family="Times New Roman,serif" font-size="14.00">1/4</text>
</g>
<!-- Coffee -->
<g id="node4" class="node">
<title>Coffee</title>
<ellipse fill="none" stroke="black" cx="383.58" cy="-99.47" rx="36" ry="18"/>
<text text-anchor="middle" x="383.58" y="-95.77" font-family="Times New Roman,serif" font-size="14.00">Coffee</text>
</g>
<!-- Donuts&#45;&gt;Coffee -->
<g id="edge3" class="edge">
<title>Donuts&#45;&gt;Coffee</title>
<path fill="none" stroke="black" d="M288.5,-89.67C295.57,-90.66 302.96,-91.64 309.88,-92.47 318.93,-93.55 328.64,-94.58 337.92,-95.5"/>
<polygon fill="black" stroke="black" points="337.86,-99.01 348.15,-96.48 338.53,-92.04 337.86,-99.01"/>
<text text-anchor="middle" x="318.88" y="-97.27" font-family="Times New Roman,serif" font-size="14.00">3/5</text>
</g>
<!-- Coffee&#39; -->
<g id="node5" class="node">
<title>Coffee&#39;</title>
<ellipse fill="none" stroke="black" cx="383.58" cy="-30.47" rx="37.89" ry="18"/>
<text text-anchor="middle" x="383.58" y="-26.77" font-family="Times New Roman,serif" font-size="14.00">Coffee&#39;</text>
</g>
<!-- Donuts&#45;&gt;Coffee&#39; -->
<g id="edge4" class="edge">
<title>Donuts&#45;&gt;Coffee&#39;</title>
<path fill="none" stroke="black" d="M282.07,-73.26C295.91,-67.7 312.81,-60.83 327.88,-54.47 333.77,-51.98 340,-49.3 346.06,-46.66"/>
<polygon fill="black" stroke="black" points="347.62,-49.8 355.38,-42.59 344.81,-43.39 347.62,-49.8"/>
<text text-anchor="middle" x="318.88" y="-64.27" font-family="Times New Roman,serif" font-size="14.00">2/5</text>
</g>
<!-- Donuts&#39;&#45;&gt;Coffee -->
<g id="edge5" class="edge">
<title>Donuts&#39;&#45;&gt;Coffee</title>
<path fill="none" stroke="black" d="M291.59,-27.25C303.74,-27.68 316.89,-29.8 327.88,-35.47 339.11,-41.26 337.72,-47.82 345.88,-57.47 350.86,-63.37 356.31,-69.67 361.43,-75.54"/>
<polygon fill="black" stroke="black" points="358.94,-78.01 368.16,-83.22 364.2,-73.39 358.94,-78.01"/>
<text text-anchor="middle" x="318.88" y="-39.27" font-family="Times New Roman,serif" font-size="14.00">1/3</text>
</g>
<!-- Donuts&#39;&#45;&gt;Coffee&#39; -->
<g id="edge6" class="edge">
<title>Donuts&#39;&#45;&gt;Coffee&#39;</title>
<path fill="none" stroke="black" d="M274.15,-15.13C288.76,-5.92 309.13,3.19 327.88,-1.47 336.11,-3.52 344.46,-7.06 352.08,-10.98"/>
<polygon fill="black" stroke="black" points="350.51,-14.11 360.95,-15.87 353.89,-7.98 350.51,-14.11"/>
<text text-anchor="middle" x="318.88" y="-5.27" font-family="Times New Roman,serif" font-size="14.00">2/3</text>
</g>
</g>
</svg>
