<?xml version="1.0" encoding="UTF-8" standalone="no"?>
<!DOCTYPE svg PUBLIC "-//W3C//DTD SVG 1.1//EN"
 "http://www.w3.org/Graphics/SVG/1.1/DTD/svg11.dtd">
<!-- Generated by graphviz version 2.47.1 (20210417.1919)
 -->
<!-- Title: G Pages: 1 -->
<svg width="640pt" height="206pt"
 viewBox="0.00 0.00 640.46 206.00" xmlns="http://www.w3.org/2000/svg" xmlns:xlink="http://www.w3.org/1999/xlink">
<g id="graph0" class="graph" transform="scale(1 1) rotate(0) translate(4 202)">
<title>G</title>
<polygon fill="white" stroke="transparent" points="-4,4 -4,-202 636.46,-202 636.46,4 -4,4"/>
<!-- Fred -->
<g id="node1" class="node">
<title>Fred</title>
<ellipse fill="none" stroke="black" cx="27.95" cy="-99" rx="27.9" ry="18"/>
<text text-anchor="middle" x="27.95" y="-95.3" font-family="Times New Roman,serif" font-size="14.00">Fred</text>
</g>
<!-- Heads -->
<g id="node2" class="node">
<title>Heads</title>
<ellipse fill="none" stroke="black" cx="143.69" cy="-126" rx="33.6" ry="18"/>
<text text-anchor="middle" x="143.69" y="-122.3" font-family="Times New Roman,serif" font-size="14.00">Heads</text>
</g>
<!-- Fred&#45;&gt;Heads -->
<g id="edge1" class="edge">
<title>Fred&#45;&gt;Heads</title>
<path fill="none" stroke="black" d="M54.47,-105.06C68.55,-108.4 86.35,-112.63 102.28,-116.41"/>
<polygon fill="black" stroke="black" points="101.87,-119.91 112.41,-118.81 103.49,-113.1 101.87,-119.91"/>
<text text-anchor="middle" x="82.9" y="-116.8" font-family="Times New Roman,serif" font-size="14.00">0.5</text>
</g>
<!-- Tails -->
<g id="node3" class="node">
<title>Tails</title>
<ellipse fill="none" stroke="black" cx="143.69" cy="-72" rx="28.7" ry="18"/>
<text text-anchor="middle" x="143.69" y="-68.3" font-family="Times New Roman,serif" font-size="14.00">Tails</text>
</g>
<!-- Fred&#45;&gt;Tails -->
<g id="edge2" class="edge">
<title>Fred&#45;&gt;Tails</title>
<path fill="none" stroke="black" d="M54.47,-92.94C69.77,-89.31 89.47,-84.63 106.37,-80.62"/>
<polygon fill="black" stroke="black" points="107.54,-83.94 116.46,-78.23 105.92,-77.13 107.54,-83.94"/>
<text text-anchor="middle" x="82.9" y="-90.8" font-family="Times New Roman,serif" font-size="14.00">0.5</text>
</g>
<!-- Heads&#45;&gt; George Heads -->
<g id="node4" class="node">
<title>Heads&#45;&gt; George Heads</title>
<ellipse fill="none" stroke="black" cx="328.33" cy="-180" rx="96.68" ry="18"/>
<text text-anchor="middle" x="328.33" y="-176.3" font-family="Times New Roman,serif" font-size="14.00">Heads&#45;&gt; George Heads</text>
</g>
<!-- Heads&#45;&gt;Heads&#45;&gt; George Heads -->
<g id="edge3" class="edge">
<title>Heads&#45;&gt;Heads&#45;&gt; George Heads</title>
<path fill="none" stroke="black" d="M171.41,-136.56C179.13,-139.45 187.59,-142.48 195.49,-145 215.85,-151.49 238.24,-157.76 258.69,-163.15"/>
<polygon fill="black" stroke="black" points="258,-166.58 268.56,-165.72 259.77,-159.81 258,-166.58"/>
<text text-anchor="middle" x="204.49" y="-153.8" font-family="Times New Roman,serif" font-size="14.00">0.5</text>
</g>
<!-- Heads&#45;&gt; George Tails -->
<g id="node5" class="node">
<title>Heads&#45;&gt; George Tails</title>
<ellipse fill="none" stroke="black" cx="328.33" cy="-126" rx="90.98" ry="18"/>
<text text-anchor="middle" x="328.33" y="-122.3" font-family="Times New Roman,serif" font-size="14.00">Heads&#45;&gt; George Tails</text>
</g>
<!-- Heads&#45;&gt;Heads&#45;&gt; George Tails -->
<g id="edge4" class="edge">
<title>Heads&#45;&gt;Heads&#45;&gt; George Tails</title>
<path fill="none" stroke="black" d="M177.77,-126C191.86,-126 209.13,-126 226.86,-126"/>
<polygon fill="black" stroke="black" points="227.34,-129.5 237.34,-126 227.34,-122.5 227.34,-129.5"/>
<text text-anchor="middle" x="204.49" y="-129.8" font-family="Times New Roman,serif" font-size="14.00">0.5</text>
</g>
<!-- Tails&#45;&gt; George Heads -->
<g id="node6" class="node">
<title>Tails&#45;&gt; George Heads</title>
<ellipse fill="none" stroke="black" cx="328.33" cy="-72" rx="90.98" ry="18"/>
<text text-anchor="middle" x="328.33" y="-68.3" font-family="Times New Roman,serif" font-size="14.00">Tails&#45;&gt; George Heads</text>
</g>
<!-- Tails&#45;&gt;Tails&#45;&gt; George Heads -->
<g id="edge5" class="edge">
<title>Tails&#45;&gt;Tails&#45;&gt; George Heads</title>
<path fill="none" stroke="black" d="M172.43,-72C187.37,-72 206.82,-72 226.86,-72"/>
<polygon fill="black" stroke="black" points="227.05,-75.5 237.05,-72 227.05,-68.5 227.05,-75.5"/>
<text text-anchor="middle" x="204.49" y="-75.8" font-family="Times New Roman,serif" font-size="14.00">0.5</text>
</g>
<!-- Tails&#45;&gt; George Tails -->
<g id="node7" class="node">
<title>Tails&#45;&gt; George Tails</title>
<ellipse fill="none" stroke="black" cx="328.33" cy="-18" rx="85.59" ry="18"/>
<text text-anchor="middle" x="328.33" y="-14.3" font-family="Times New Roman,serif" font-size="14.00">Tails&#45;&gt; George Tails</text>
</g>
<!-- Tails&#45;&gt;Tails&#45;&gt; George Tails -->
<g id="edge6" class="edge">
<title>Tails&#45;&gt;Tails&#45;&gt; George Tails</title>
<path fill="none" stroke="black" d="M168.3,-62.62C176.81,-59.39 186.52,-55.86 195.49,-53 216.82,-46.2 240.37,-39.65 261.6,-34.09"/>
<polygon fill="black" stroke="black" points="262.69,-37.42 271.49,-31.53 260.93,-30.65 262.69,-37.42"/>
<text text-anchor="middle" x="204.49" y="-56.8" font-family="Times New Roman,serif" font-size="14.00">0.5</text>
</g>
<!-- Fred Eats Alone -->
<g id="node8" class="node">
<title>Fred Eats Alone</title>
<ellipse fill="none" stroke="black" cx="547.31" cy="-180" rx="69.59" ry="18"/>
<text text-anchor="middle" x="547.31" y="-176.3" font-family="Times New Roman,serif" font-size="14.00">Fred Eats Alone</text>
</g>
<!-- Heads&#45;&gt; George Heads&#45;&gt;Fred Eats Alone -->
<g id="edge7" class="edge">
<title>Heads&#45;&gt; George Heads&#45;&gt;Fred Eats Alone</title>
<path fill="none" stroke="black" d="M425.45,-180C439.45,-180 453.73,-180 467.34,-180"/>
<polygon fill="black" stroke="black" points="467.6,-183.5 477.6,-180 467.6,-176.5 467.6,-183.5"/>
</g>
<!-- Ron Eats Alone -->
<g id="node9" class="node">
<title>Ron Eats Alone</title>
<ellipse fill="none" stroke="black" cx="547.31" cy="-126" rx="68.49" ry="18"/>
<text text-anchor="middle" x="547.31" y="-122.3" font-family="Times New Roman,serif" font-size="14.00">Ron Eats Alone</text>
</g>
<!-- Heads&#45;&gt; George Tails&#45;&gt;Ron Eats Alone -->
<g id="edge8" class="edge">
<title>Heads&#45;&gt; George Tails&#45;&gt;Ron Eats Alone</title>
<path fill="none" stroke="black" d="M419.47,-126C435.8,-126 452.7,-126 468.64,-126"/>
<polygon fill="black" stroke="black" points="468.96,-129.5 478.96,-126 468.96,-122.5 468.96,-129.5"/>
</g>
<!-- Everyone eats Italian -->
<g id="node10" class="node">
<title>Everyone eats Italian</title>
<ellipse fill="none" stroke="black" cx="547.31" cy="-72" rx="85.29" ry="18"/>
<text text-anchor="middle" x="547.31" y="-68.3" font-family="Times New Roman,serif" font-size="14.00">Everyone eats Italian</text>
</g>
<!-- Tails&#45;&gt; George Heads&#45;&gt;Everyone eats Italian -->
<g id="edge9" class="edge">
<title>Tails&#45;&gt; George Heads&#45;&gt;Everyone eats Italian</title>
<path fill="none" stroke="black" d="M419.47,-72C430.14,-72 441.06,-72 451.8,-72"/>
<polygon fill="black" stroke="black" points="452.02,-75.5 462.02,-72 452.02,-68.5 452.02,-75.5"/>
</g>
<!-- George Eats Alone -->
<g id="node11" class="node">
<title>George Eats Alone</title>
<ellipse fill="none" stroke="black" cx="547.31" cy="-18" rx="79.09" ry="18"/>
<text text-anchor="middle" x="547.31" y="-14.3" font-family="Times New Roman,serif" font-size="14.00">George Eats Alone</text>
</g>
<!-- Tails&#45;&gt; George Tails&#45;&gt;George Eats Alone -->
<g id="edge10" class="edge">
<title>Tails&#45;&gt; George Tails&#45;&gt;George Eats Alone</title>
<path fill="none" stroke="black" d="M414.15,-18C428.41,-18 443.23,-18 457.58,-18"/>
<polygon fill="black" stroke="black" points="457.92,-21.5 467.92,-18 457.92,-14.5 457.92,-21.5"/>
</g>
</g>
</svg>
