<?xml version="1.0" encoding="UTF-8" standalone="no"?>
<!DOCTYPE svg PUBLIC "-//W3C//DTD SVG 1.1//EN"
 "http://www.w3.org/Graphics/SVG/1.1/DTD/svg11.dtd">
<!-- Generated by graphviz version 2.47.1 (20210417.1919)
 -->
<!-- Title: G Pages: 1 -->
<svg width="265pt" height="98pt"
 viewBox="0.00 0.00 264.78 98.00" xmlns="http://www.w3.org/2000/svg" xmlns:xlink="http://www.w3.org/1999/xlink">
<g id="graph0" class="graph" transform="scale(1 1) rotate(0) translate(4 94)">
<title>G</title>
<polygon fill="white" stroke="transparent" points="-4,4 -4,-94 260.78,-94 260.78,4 -4,4"/>
<!-- Health Club -->
<g id="node1" class="node">
<title>Health Club</title>
<ellipse fill="none" stroke="black" cx="53.95" cy="-45" rx="53.89" ry="18"/>
<text text-anchor="middle" x="53.95" y="-41.3" font-family="Times New Roman,serif" font-size="14.00">Health Club</text>
</g>
<!-- swimming -->
<g id="node2" class="node">
<title>swimming</title>
<ellipse fill="none" stroke="black" cx="209.34" cy="-72" rx="47.39" ry="18"/>
<text text-anchor="middle" x="209.34" y="-68.3" font-family="Times New Roman,serif" font-size="14.00">swimming</text>
</g>
<!-- Health Club&#45;&gt;swimming -->
<g id="edge1" class="edge">
<title>Health Club&#45;&gt;swimming</title>
<path fill="none" stroke="black" d="M102.22,-53.32C119.22,-56.31 138.49,-59.71 155.9,-62.77"/>
<polygon fill="black" stroke="black" points="155.45,-66.24 165.9,-64.53 156.66,-59.35 155.45,-66.24"/>
<text text-anchor="middle" x="134.89" y="-63.8" font-family="Times New Roman,serif" font-size="14.00">3/4</text>
</g>
<!-- yoga -->
<g id="node3" class="node">
<title>yoga</title>
<ellipse fill="none" stroke="black" cx="209.34" cy="-18" rx="28.7" ry="18"/>
<text text-anchor="middle" x="209.34" y="-14.3" font-family="Times New Roman,serif" font-size="14.00">yoga</text>
</g>
<!-- Health Club&#45;&gt;yoga -->
<g id="edge2" class="edge">
<title>Health Club&#45;&gt;yoga</title>
<path fill="none" stroke="black" d="M102.22,-36.68C124.51,-32.76 150.71,-28.14 171.5,-24.48"/>
<polygon fill="black" stroke="black" points="172.28,-27.9 181.52,-22.72 171.07,-21.01 172.28,-27.9"/>
<text text-anchor="middle" x="134.89" y="-35.8" font-family="Times New Roman,serif" font-size="14.00">1/3</text>
</g>
</g>
</svg>
