<?xml version="1.0" encoding="UTF-8" standalone="no"?>
<!DOCTYPE svg PUBLIC "-//W3C//DTD SVG 1.1//EN"
 "http://www.w3.org/Graphics/SVG/1.1/DTD/svg11.dtd">
<!-- Generated by graphviz version 2.47.1 (20210417.1919)
 -->
<!-- Title: G Pages: 1 -->
<svg width="346pt" height="239pt"
 viewBox="0.00 0.00 346.08 239.00" xmlns="http://www.w3.org/2000/svg" xmlns:xlink="http://www.w3.org/1999/xlink">
<g id="graph0" class="graph" transform="scale(1 1) rotate(0) translate(4 235)">
<title>G</title>
<polygon fill="white" stroke="transparent" points="-4,4 -4,-235 342.08,-235 342.08,4 -4,4"/>
<!-- Roulette -->
<g id="node1" class="node">
<title>Roulette</title>
<ellipse fill="none" stroke="black" cx="40.95" cy="-129" rx="40.89" ry="18"/>
<text text-anchor="middle" x="40.95" y="-125.3" font-family="Times New Roman,serif" font-size="14.00">Roulette</text>
</g>
<!-- Black -->
<g id="node2" class="node">
<title>Black</title>
<ellipse fill="none" stroke="black" cx="181.39" cy="-129" rx="31.4" ry="18"/>
<text text-anchor="middle" x="181.39" y="-125.3" font-family="Times New Roman,serif" font-size="14.00">Black</text>
</g>
<!-- Roulette&#45;&gt;Black -->
<g id="edge1" class="edge">
<title>Roulette&#45;&gt;Black</title>
<path fill="none" stroke="black" d="M81.99,-129C100.23,-129 121.78,-129 140.06,-129"/>
<polygon fill="black" stroke="black" points="140.11,-132.5 150.11,-129 140.11,-125.5 140.11,-132.5"/>
<text text-anchor="middle" x="115.39" y="-132.8" font-family="Times New Roman,serif" font-size="14.00">18/38</text>
</g>
<!-- Red -->
<g id="node3" class="node">
<title>Red</title>
<ellipse fill="none" stroke="black" cx="181.39" cy="-186" rx="27" ry="18"/>
<text text-anchor="middle" x="181.39" y="-182.3" font-family="Times New Roman,serif" font-size="14.00">Red</text>
</g>
<!-- Roulette&#45;&gt;Red -->
<g id="edge2" class="edge">
<title>Roulette&#45;&gt;Red</title>
<path fill="none" stroke="black" d="M71.31,-141.09C93.95,-150.41 125.22,-163.29 148.48,-172.86"/>
<polygon fill="black" stroke="black" points="147.33,-176.17 157.91,-176.74 149.99,-169.7 147.33,-176.17"/>
<text text-anchor="middle" x="115.39" y="-167.8" font-family="Times New Roman,serif" font-size="14.00">18/38</text>
</g>
<!-- Green -->
<g id="node4" class="node">
<title>Green</title>
<ellipse fill="none" stroke="black" cx="181.39" cy="-72" rx="32.49" ry="18"/>
<text text-anchor="middle" x="181.39" y="-68.3" font-family="Times New Roman,serif" font-size="14.00">Green</text>
</g>
<!-- Roulette&#45;&gt;Green -->
<g id="edge3" class="edge">
<title>Roulette&#45;&gt;Green</title>
<path fill="none" stroke="black" d="M71.31,-116.91C92.98,-107.99 122.55,-95.81 145.44,-86.39"/>
<polygon fill="black" stroke="black" points="146.88,-89.58 154.8,-82.54 144.22,-83.11 146.88,-89.58"/>
<text text-anchor="middle" x="115.39" y="-106.8" font-family="Times New Roman,serif" font-size="14.00">2/38</text>
</g>
<!-- Odd -->
<g id="node5" class="node">
<title>Odd</title>
<ellipse fill="none" stroke="black" cx="309.48" cy="-213" rx="27.1" ry="18"/>
<text text-anchor="middle" x="309.48" y="-209.3" font-family="Times New Roman,serif" font-size="14.00">Odd</text>
</g>
<!-- Black&#45;&gt;Odd -->
<g id="edge4" class="edge">
<title>Black&#45;&gt;Odd</title>
<path fill="none" stroke="black" d="M212.61,-129.23C228.79,-130.69 248.32,-134.75 262.89,-145 275.6,-153.95 272.31,-162.03 280.89,-175 283.85,-179.48 287.11,-184.16 290.32,-188.65"/>
<polygon fill="black" stroke="black" points="287.64,-190.92 296.35,-196.95 293.3,-186.8 287.64,-190.92"/>
<text text-anchor="middle" x="247.39" y="-148.8" font-family="Times New Roman,serif" font-size="14.00">8/18</text>
</g>
<!-- Even -->
<g id="node6" class="node">
<title>Even</title>
<ellipse fill="none" stroke="black" cx="309.48" cy="-148" rx="28.7" ry="18"/>
<text text-anchor="middle" x="309.48" y="-144.3" font-family="Times New Roman,serif" font-size="14.00">Even</text>
</g>
<!-- Black&#45;&gt;Even -->
<g id="edge5" class="edge">
<title>Black&#45;&gt;Even</title>
<path fill="none" stroke="black" d="M205.36,-117.13C221.69,-110.31 243.99,-104.3 262.89,-111 271.59,-114.09 279.84,-119.62 286.87,-125.48"/>
<polygon fill="black" stroke="black" points="284.75,-128.28 294.52,-132.39 289.44,-123.09 284.75,-128.28"/>
<text text-anchor="middle" x="247.39" y="-114.8" font-family="Times New Roman,serif" font-size="14.00">10/18</text>
</g>
<!-- Red&#45;&gt;Odd -->
<g id="edge6" class="edge">
<title>Red&#45;&gt;Odd</title>
<path fill="none" stroke="black" d="M205.83,-194.48C213.99,-197.19 223.26,-200 231.89,-202 244.87,-205.01 259.3,-207.34 272.1,-209.06"/>
<polygon fill="black" stroke="black" points="272.04,-212.58 282.4,-210.37 272.92,-205.64 272.04,-212.58"/>
<text text-anchor="middle" x="247.39" y="-210.8" font-family="Times New Roman,serif" font-size="14.00">10/18</text>
</g>
<!-- Red&#45;&gt;Even -->
<g id="edge7" class="edge">
<title>Red&#45;&gt;Even</title>
<path fill="none" stroke="black" d="M206.83,-179.8C222.85,-175.62 244.21,-169.82 262.89,-164 266.74,-162.8 270.76,-161.48 274.74,-160.14"/>
<polygon fill="black" stroke="black" points="276.14,-163.36 284.45,-156.79 273.86,-156.74 276.14,-163.36"/>
<text text-anchor="middle" x="247.39" y="-176.8" font-family="Times New Roman,serif" font-size="14.00">8/18</text>
</g>
<!-- 0 -->
<g id="node7" class="node">
<title>0</title>
<ellipse fill="none" stroke="black" cx="309.48" cy="-72" rx="27" ry="18"/>
<text text-anchor="middle" x="309.48" y="-68.3" font-family="Times New Roman,serif" font-size="14.00">0</text>
</g>
<!-- Green&#45;&gt;0 -->
<g id="edge8" class="edge">
<title>Green&#45;&gt;0</title>
<path fill="none" stroke="black" d="M214.21,-72C231.86,-72 253.87,-72 272.19,-72"/>
<polygon fill="black" stroke="black" points="272.2,-75.5 282.2,-72 272.2,-68.5 272.2,-75.5"/>
<text text-anchor="middle" x="247.39" y="-75.8" font-family="Times New Roman,serif" font-size="14.00">1/2</text>
</g>
<!-- 00 -->
<g id="node8" class="node">
<title>00</title>
<ellipse fill="none" stroke="black" cx="309.48" cy="-18" rx="27" ry="18"/>
<text text-anchor="middle" x="309.48" y="-14.3" font-family="Times New Roman,serif" font-size="14.00">00</text>
</g>
<!-- Green&#45;&gt;00 -->
<g id="edge9" class="edge">
<title>Green&#45;&gt;00</title>
<path fill="none" stroke="black" d="M207.6,-61.2C227.55,-52.66 255.51,-40.69 276.93,-31.51"/>
<polygon fill="black" stroke="black" points="278.45,-34.67 286.27,-27.51 275.7,-28.23 278.45,-34.67"/>
<text text-anchor="middle" x="247.39" y="-52.8" font-family="Times New Roman,serif" font-size="14.00">1/2</text>
</g>
</g>
</svg>
