<?xml version="1.0" encoding="UTF-8" standalone="no"?>
<!DOCTYPE svg PUBLIC "-//W3C//DTD SVG 1.1//EN"
 "http://www.w3.org/Graphics/SVG/1.1/DTD/svg11.dtd">
<!-- Generated by graphviz version 2.47.1 (20210417.1919)
 -->
<!-- Title: G Pages: 1 -->
<svg width="398pt" height="476pt"
 viewBox="0.00 0.00 398.08 476.00" xmlns="http://www.w3.org/2000/svg" xmlns:xlink="http://www.w3.org/1999/xlink">
<g id="graph0" class="graph" transform="scale(1 1) rotate(0) translate(4 472)">
<title>G</title>
<polygon fill="white" stroke="transparent" points="-4,4 -4,-472 394.08,-472 394.08,4 -4,4"/>
<!-- Roulette -->
<g id="node1" class="node">
<title>Roulette</title>
<ellipse fill="none" stroke="black" cx="40.95" cy="-234" rx="40.89" ry="18"/>
<text text-anchor="middle" x="40.95" y="-230.3" font-family="Times New Roman,serif" font-size="14.00">Roulette</text>
</g>
<!-- Black -->
<g id="node2" class="node">
<title>Black</title>
<ellipse fill="none" stroke="black" cx="181.39" cy="-369" rx="31.4" ry="18"/>
<text text-anchor="middle" x="181.39" y="-365.3" font-family="Times New Roman,serif" font-size="14.00">Black</text>
</g>
<!-- Roulette&#45;&gt;Black -->
<g id="edge1" class="edge">
<title>Roulette&#45;&gt;Black</title>
<path fill="none" stroke="black" d="M58.65,-250.28C83.23,-274.26 129.26,-319.14 157.14,-346.33"/>
<polygon fill="black" stroke="black" points="154.88,-349.02 164.49,-353.49 159.77,-344 154.88,-349.02"/>
<text text-anchor="middle" x="115.39" y="-320.8" font-family="Times New Roman,serif" font-size="14.00">18/38</text>
</g>
<!-- Red -->
<g id="node3" class="node">
<title>Red</title>
<ellipse fill="none" stroke="black" cx="181.39" cy="-234" rx="27" ry="18"/>
<text text-anchor="middle" x="181.39" y="-230.3" font-family="Times New Roman,serif" font-size="14.00">Red</text>
</g>
<!-- Roulette&#45;&gt;Red -->
<g id="edge2" class="edge">
<title>Roulette&#45;&gt;Red</title>
<path fill="none" stroke="black" d="M81.99,-234C101.53,-234 124.87,-234 143.91,-234"/>
<polygon fill="black" stroke="black" points="144,-237.5 154,-234 144,-230.5 144,-237.5"/>
<text text-anchor="middle" x="115.39" y="-237.8" font-family="Times New Roman,serif" font-size="14.00">18/38</text>
</g>
<!-- Green -->
<g id="node4" class="node">
<title>Green</title>
<ellipse fill="none" stroke="black" cx="181.39" cy="-99" rx="32.49" ry="18"/>
<text text-anchor="middle" x="181.39" y="-95.3" font-family="Times New Roman,serif" font-size="14.00">Green</text>
</g>
<!-- Roulette&#45;&gt;Green -->
<g id="edge3" class="edge">
<title>Roulette&#45;&gt;Green</title>
<path fill="none" stroke="black" d="M58.65,-217.72C83.23,-193.74 129.26,-148.86 157.14,-121.67"/>
<polygon fill="black" stroke="black" points="159.77,-124 164.49,-114.51 154.88,-118.98 159.77,-124"/>
<text text-anchor="middle" x="115.39" y="-177.8" font-family="Times New Roman,serif" font-size="14.00">2/38</text>
</g>
<!-- BlackBlack -->
<g id="node5" class="node">
<title>BlackBlack</title>
<ellipse fill="none" stroke="black" cx="335.48" cy="-450" rx="51.99" ry="18"/>
<text text-anchor="middle" x="335.48" y="-446.3" font-family="Times New Roman,serif" font-size="14.00">BlackBlack</text>
</g>
<!-- Black&#45;&gt;BlackBlack -->
<g id="edge4" class="edge">
<title>Black&#45;&gt;BlackBlack</title>
<path fill="none" stroke="black" d="M202.26,-382.68C211.16,-388.58 221.88,-395.41 231.89,-401 251.64,-412.04 274.27,-423.02 293.25,-431.78"/>
<polygon fill="black" stroke="black" points="291.97,-435.04 302.52,-436.01 294.88,-428.67 291.97,-435.04"/>
<text text-anchor="middle" x="247.39" y="-419.8" font-family="Times New Roman,serif" font-size="14.00">18/38</text>
</g>
<!-- BlackRed -->
<g id="node6" class="node">
<title>BlackRed</title>
<ellipse fill="none" stroke="black" cx="335.48" cy="-396" rx="46.29" ry="18"/>
<text text-anchor="middle" x="335.48" y="-392.3" font-family="Times New Roman,serif" font-size="14.00">BlackRed</text>
</g>
<!-- Black&#45;&gt;BlackRed -->
<g id="edge5" class="edge">
<title>Black&#45;&gt;BlackRed</title>
<path fill="none" stroke="black" d="M211.36,-374.14C231.64,-377.74 259.3,-382.65 283.26,-386.91"/>
<polygon fill="black" stroke="black" points="282.81,-390.38 293.27,-388.68 284.04,-383.49 282.81,-390.38"/>
<text text-anchor="middle" x="247.39" y="-385.8" font-family="Times New Roman,serif" font-size="14.00">18/38</text>
</g>
<!-- BlackGreen -->
<g id="node7" class="node">
<title>BlackGreen</title>
<ellipse fill="none" stroke="black" cx="335.48" cy="-342" rx="53.09" ry="18"/>
<text text-anchor="middle" x="335.48" y="-338.3" font-family="Times New Roman,serif" font-size="14.00">BlackGreen</text>
</g>
<!-- Black&#45;&gt;BlackGreen -->
<g id="edge6" class="edge">
<title>Black&#45;&gt;BlackGreen</title>
<path fill="none" stroke="black" d="M210.89,-363.06C217.75,-361.68 225.08,-360.25 231.89,-359 246.46,-356.32 262.23,-353.61 276.94,-351.17"/>
<polygon fill="black" stroke="black" points="277.62,-354.6 286.92,-349.52 276.48,-347.7 277.62,-354.6"/>
<text text-anchor="middle" x="247.39" y="-362.8" font-family="Times New Roman,serif" font-size="14.00">2/38</text>
</g>
<!-- RedBlack -->
<g id="node8" class="node">
<title>RedBlack</title>
<ellipse fill="none" stroke="black" cx="335.48" cy="-288" rx="46.29" ry="18"/>
<text text-anchor="middle" x="335.48" y="-284.3" font-family="Times New Roman,serif" font-size="14.00">RedBlack</text>
</g>
<!-- Red&#45;&gt;RedBlack -->
<g id="edge7" class="edge">
<title>Red&#45;&gt;RedBlack</title>
<path fill="none" stroke="black" d="M204.99,-242.88C213.41,-246.14 223.06,-249.8 231.89,-253 250.85,-259.87 271.91,-267.12 289.99,-273.23"/>
<polygon fill="black" stroke="black" points="289.11,-276.63 299.7,-276.5 291.34,-269.99 289.11,-276.63"/>
<text text-anchor="middle" x="247.39" y="-266.8" font-family="Times New Roman,serif" font-size="14.00">18/38</text>
</g>
<!-- RedRed -->
<g id="node9" class="node">
<title>RedRed</title>
<ellipse fill="none" stroke="black" cx="335.48" cy="-234" rx="40.89" ry="18"/>
<text text-anchor="middle" x="335.48" y="-230.3" font-family="Times New Roman,serif" font-size="14.00">RedRed</text>
</g>
<!-- Red&#45;&gt;RedRed -->
<g id="edge8" class="edge">
<title>Red&#45;&gt;RedRed</title>
<path fill="none" stroke="black" d="M208.54,-234C229.29,-234 258.92,-234 284.22,-234"/>
<polygon fill="black" stroke="black" points="284.4,-237.5 294.4,-234 284.4,-230.5 284.4,-237.5"/>
<text text-anchor="middle" x="247.39" y="-237.8" font-family="Times New Roman,serif" font-size="14.00">18/38</text>
</g>
<!-- RedGreen -->
<g id="node10" class="node">
<title>RedGreen</title>
<ellipse fill="none" stroke="black" cx="335.48" cy="-180" rx="48.19" ry="18"/>
<text text-anchor="middle" x="335.48" y="-176.3" font-family="Times New Roman,serif" font-size="14.00">RedGreen</text>
</g>
<!-- Red&#45;&gt;RedGreen -->
<g id="edge9" class="edge">
<title>Red&#45;&gt;RedGreen</title>
<path fill="none" stroke="black" d="M204.99,-225.12C213.41,-221.86 223.06,-218.2 231.89,-215 250.55,-208.24 271.25,-201.11 289.14,-195.06"/>
<polygon fill="black" stroke="black" points="290.4,-198.33 298.76,-191.82 288.16,-191.69 290.4,-198.33"/>
<text text-anchor="middle" x="247.39" y="-218.8" font-family="Times New Roman,serif" font-size="14.00">2/38</text>
</g>
<!-- GreenBlack -->
<g id="node11" class="node">
<title>GreenBlack</title>
<ellipse fill="none" stroke="black" cx="335.48" cy="-126" rx="53.09" ry="18"/>
<text text-anchor="middle" x="335.48" y="-122.3" font-family="Times New Roman,serif" font-size="14.00">GreenBlack</text>
</g>
<!-- Green&#45;&gt;GreenBlack -->
<g id="edge10" class="edge">
<title>Green&#45;&gt;GreenBlack</title>
<path fill="none" stroke="black" d="M212.44,-104.33C231.13,-107.65 255.76,-112.03 278,-115.97"/>
<polygon fill="black" stroke="black" points="277.56,-119.45 288.02,-117.75 278.79,-112.56 277.56,-119.45"/>
<text text-anchor="middle" x="247.39" y="-115.8" font-family="Times New Roman,serif" font-size="14.00">18/38</text>
</g>
<!-- GreenRed -->
<g id="node12" class="node">
<title>GreenRed</title>
<ellipse fill="none" stroke="black" cx="335.48" cy="-72" rx="48.19" ry="18"/>
<text text-anchor="middle" x="335.48" y="-68.3" font-family="Times New Roman,serif" font-size="14.00">GreenRed</text>
</g>
<!-- Green&#45;&gt;GreenRed -->
<g id="edge11" class="edge">
<title>Green&#45;&gt;GreenRed</title>
<path fill="none" stroke="black" d="M212.2,-92.8C218.68,-91.5 225.51,-90.17 231.89,-89 247.76,-86.08 265.07,-83.13 280.86,-80.52"/>
<polygon fill="black" stroke="black" points="281.69,-83.93 290.99,-78.86 280.56,-77.02 281.69,-83.93"/>
<text text-anchor="middle" x="247.39" y="-92.8" font-family="Times New Roman,serif" font-size="14.00">18/38</text>
</g>
<!-- GreenGreen -->
<g id="node13" class="node">
<title>GreenGreen</title>
<ellipse fill="none" stroke="black" cx="335.48" cy="-18" rx="54.69" ry="18"/>
<text text-anchor="middle" x="335.48" y="-14.3" font-family="Times New Roman,serif" font-size="14.00">GreenGreen</text>
</g>
<!-- Green&#45;&gt;GreenGreen -->
<g id="edge12" class="edge">
<title>Green&#45;&gt;GreenGreen</title>
<path fill="none" stroke="black" d="M201.09,-84.47C210.13,-77.8 221.28,-70.05 231.89,-64 250.37,-53.46 271.71,-43.55 290.13,-35.65"/>
<polygon fill="black" stroke="black" points="291.61,-38.83 299.46,-31.71 288.89,-32.38 291.61,-38.83"/>
<text text-anchor="middle" x="247.39" y="-67.8" font-family="Times New Roman,serif" font-size="14.00">2/38</text>
</g>
</g>
</svg>
